<?xml version="1.0" encoding="UTF-8" standalone="no"?>
<!-- Created with Inkscape (http://www.inkscape.org/) -->

<svg
   width="47.0355mm"
   height="47.035774mm"
   viewBox="0 0 47.0355 47.035774"
   version="1.1"
   id="svg814"
   xmlns="http://www.w3.org/2000/svg"
   xmlns:svg="http://www.w3.org/2000/svg">
  <defs
     id="defs811" />
  <g
     id="layer1"
     transform="translate(-108.93304,-20.228874)">
    <g
       transform="matrix(0.26458333,0,0,0.26458333,132.4508,35.300335)"
       id="g425"
       style="clip-rule:evenodd;fill:#000000;fill-opacity:1;fill-rule:evenodd;stroke-linejoin:round;stroke-miterlimit:2">
                        <path
   d="m 0,63.847 c -17.631,0 -31.924,-14.293 -31.924,-31.924 0,-17.631 14.293,-31.924 31.924,-31.924 17.631,0 31.924,14.293 31.924,31.924 C 31.924,49.554 17.631,63.847 0,63.847 M 84.791,22.474 c -1.996,0 -3.717,-1.44 -4.028,-3.412 C 78.71,6.077 73.604,-5.886 66.2,-16.078 c -1.175,-1.619 -0.983,-3.853 0.432,-5.267 l 0.007,-0.007 c 1.598,-1.599 1.598,-4.192 0,-5.791 l -7.573,-7.572 c -1.599,-1.599 -4.192,-1.599 -5.791,0 l -0.006,0.007 c -1.414,1.414 -3.648,1.607 -5.267,0.431 -10.193,-7.404 -22.156,-12.51 -35.141,-14.562 -1.972,-0.312 -3.412,-2.032 -3.412,-4.03 0,-2.261 -1.833,-4.094 -4.094,-4.094 h -10.71 c -2.261,0 -4.095,1.833 -4.095,4.094 0,1.998 -1.438,3.718 -3.411,4.03 -12.985,2.052 -24.948,7.158 -35.14,14.562 -1.618,1.176 -3.852,0.983 -5.268,-0.431 l -0.006,-0.007 c -1.599,-1.599 -4.192,-1.599 -5.79,0 l -7.573,7.572 c -1.599,1.599 -1.599,4.192 0,5.791 l 0.007,0.007 c 1.414,1.414 1.607,3.649 0.431,5.267 -7.404,10.192 -12.51,22.155 -14.563,35.14 -0.311,1.972 -2.031,3.412 -4.028,3.412 -2.262,0 -4.095,1.833 -4.095,4.095 v 10.709 c 0,2.261 1.833,4.095 4.095,4.095 1.997,0 3.717,1.439 4.028,3.412 2.053,12.984 7.159,24.947 14.563,35.14 1.176,1.618 0.983,3.852 -0.431,5.267 l -0.007,0.007 c -1.599,1.598 -1.599,4.191 0,5.79 l 7.573,7.573 c 1.598,1.599 4.191,1.599 5.79,0 l 0.006,-0.007 c 1.416,-1.415 3.65,-1.607 5.268,-0.432 10.192,7.404 22.155,12.511 35.14,14.563 1.973,0.311 3.411,2.032 3.411,4.029 0,2.262 1.834,4.095 4.095,4.095 h 10.71 c 2.261,0 4.094,-1.833 4.094,-4.095 0,-1.997 1.44,-3.718 3.412,-4.029 12.985,-2.052 24.948,-7.159 35.141,-14.563 1.619,-1.175 3.853,-0.983 5.267,0.432 l 0.006,0.007 c 1.599,1.599 4.192,1.599 5.791,0 l 7.573,-7.573 c 1.598,-1.599 1.598,-4.191 0,-5.79 L 66.632,85.192 C 65.217,83.777 65.025,81.543 66.2,79.925 73.604,69.732 78.71,57.769 80.763,44.785 c 0.311,-1.973 2.032,-3.412 4.028,-3.412 2.262,0 4.095,-1.834 4.095,-4.095 V 26.569 c 0,-2.262 -1.833,-4.095 -4.095,-4.095"
   style="fill:#000000;fill-opacity:1;fill-rule:nonzero"
   id="path423" />

                    </g>
  </g>
</svg>
